<?xml version="1.0" encoding="UTF-8" standalone="no" ?>
<!DOCTYPE svg PUBLIC "-//W3C//DTD SVG 1.1//EN" "http://www.w3.org/Graphics/SVG/1.1/DTD/svg11.dtd">
<svg xmlns="http://www.w3.org/2000/svg" xmlns:xlink="http://www.w3.org/1999/xlink" version="1.1" width="150" height="100" viewBox="100 200 300 150" xml:space="preserve">
<desc>Created with Fabric.js 3.6.3</desc>
<defs>
</defs>
<g transform="matrix(1 0 0 1 294.7109842717166 264.25)" style=""  ><path fill="#000000" opacity="1" d="M-100.17-11.81C-99.84-12.31-100.17-12.98-101.01-12.98L-106.23-12.98C-107.24-12.98-107.95-12.31-108.25-11.81L-113.30-3.56L-113.63-3.56L-118.68-11.81C-118.98-12.31-119.69-12.98-120.70-12.98L-125.92-12.98C-126.76-12.98-127.09-12.31-126.76-11.81L-117.17 3.17L-117.17 9.39C-117.17 10.07-116.66 10.57-115.99 10.57L-110.94 10.57C-110.27 10.57-109.76 10.07-109.76 9.39L-109.76 3.17Z"/><path fill="#000000" opacity="1" d="M-74.30-6.42C-74.30-9.96-77.32-12.98-84.22-12.98L-96.34-12.98C-97.01-12.98-97.51-12.48-97.51-11.81L-97.51 9.39C-97.51 10.07-97.01 10.57-96.34 10.57L-82.88 10.57C-75.81 10.57-72.61 7.37-72.61 3.67C-72.61-0.70-77.66-1.71-77.66-1.71L-77.66-2.05C-77.66-2.05-74.30-3.06-74.30-6.42ZM-82.88 1.15C-81.19 1.15-80.35 1.99-80.35 3.17C-80.35 4.35-81.19 5.19-82.88 5.19L-90.11 5.19L-90.11 1.15ZM-84.22-7.60C-82.67-7.60-82.04-6.93-82.04-5.92C-82.04-4.91-82.71-4.24-84.22-4.24L-90.11-4.24L-90.11-7.60Z"/><path fill="#000000" opacity="1" d="M-46.03-11.81C-46.03-12.48-46.53-12.98-47.21-12.98L-67.73-12.98C-68.41-12.98-68.91-12.48-68.91-11.81L-68.91 9.39C-68.91 10.07-68.41 10.57-67.73 10.57L-47.21 10.57C-46.53 10.57-46.03 10.07-46.03 9.39L-46.03 6.03C-46.03 5.36-46.53 4.85-47.21 4.85L-61.51 4.85L-61.51 1.49L-50.91 1.49C-50.24 1.49-49.73 0.98-49.73 0.31L-49.73-3.06C-49.73-3.73-50.24-4.24-50.91-4.24L-61.51-4.24L-61.51-7.26L-47.21-7.26C-46.53-7.26-46.03-7.77-46.03-8.44Z"/><path fill="#000000" opacity="1" d="M-22.48 0.14C-22.48 0.14-17.93-0.87-17.93-5.24C-17.93-9.45-21.47-12.98-28.87-12.98L-41.15-12.98C-41.82-12.98-42.33-12.48-42.33-11.81L-42.33 9.39C-42.33 10.07-41.82 10.57-41.15 10.57L-36.10 10.57C-35.43 10.57-34.93 10.07-34.93 9.39L-34.93 2.49L-30.55 2.49C-28.70 2.49-28.06 3.17-27.52 4.18L-24.66 9.39C-24.29 10.07-23.82 10.57-22.48 10.57L-17.26 10.57C-16.42 10.57-16.15 9.90-16.42 9.39L-19.28 4.18C-20.96 1.15-22.48 0.48-22.48 0.48ZM-34.93-2.89L-34.93-7.60L-28.87-7.60C-26.68-7.60-25.67-6.59-25.67-5.24C-25.67-3.90-26.68-2.89-28.87-2.89Z"/></g><g transform="matrix(-0.9714261695274514 0.9225069564181981 -0.9225069564181981 -0.9714261695274514 160.9999999999999 269.0205913853019)"  >
<path style="stroke: none; stroke-width: 0; stroke-dasharray: none; stroke-linecap: butt; stroke-dashoffset: 0; stroke-linejoin: miter; stroke-miterlimit: 4; fill: #000000; fill-rule: evenodd; opacity: 1;"  transform=" translate(-49.99750378006059, -50.002002254233034)" d="M 94.785 52.821 l -4.929 -0.65 l 4.336 -1.854 l -5.872 0.688 l 1.424 -2.232 l -2.602 1.662 c -1.705 -0.921 -3.677 -2.495 -6.326 -1.424 c -0.775 0.315 -1.513 0.771 -2.203 1.302 l -0.01 -0.38 c -0.022 -0.69 -0.036 -1.376 -0.077 -2.06 c -0.339 -5.491 -2.287 -10.618 -4.897 -14.819 c -0.358 -0.53 -0.698 -1.062 -1.045 -1.584 c 1.273 -0.699 2.547 -1.708 3.477 -3.18 c 2.193 -3.469 0.566 -7.855 0.566 -7.855 l 1.814 -4.354 l -2.64 2.267 l -0.791 -3.953 l -0.999 4.023 l -2.092 -2.511 l 1.068 3.913 l -2.674 0.588 l 3.278 1.155 c 0 0 0.789 3.329 -0.588 5.116 c -0.694 0.902 -1.6 1.558 -2.513 2.034 c -0.385 -0.468 -0.772 -0.943 -1.147 -1.403 c -0.809 -0.885 -1.687 -1.746 -2.501 -2.582 c -0.863 -0.938 -1.521 -1.376 -2.23 -2.014 c -0.344 -0.301 -0.687 -0.597 -1.025 -0.891 l -0.464 -0.4 l -0.304 -0.235 c -0.203 -0.154 -0.401 -0.313 -0.593 -0.478 c -0.769 -0.656 -1.488 -1.348 -2.231 -1.989 c -0.369 -0.33 -0.711 -0.667 -1.093 -0.988 c -0.407 -0.31 -4.084 -2.907 -8.256 -3.412 c -1.515 -0.171 -2.571 -0.209 -4.418 -0.112 c -5.811 0.623 -7.211 1.759 -7.211 1.759 c -0.383 0.177 -0.717 0.467 -0.948 0.856 c -0.609 1.025 -0.417 1.86 0.607 2.896 c 0 0 0.948 0.893 2.042 1.685 c 4.698 3.404 5.768 4.117 7.974 5.025 c 1.176 0.484 3.21 0.69 3.497 0.786 c 0.277 0.097 0.575 0.167 0.876 0.253 c 0.312 0.103 0.649 0.232 0.981 0.355 c 0.328 0.137 0.678 0.253 1.009 0.41 c 0.318 0.174 0.635 0.359 0.941 0.57 c 0.157 0.1 0.311 0.208 0.459 0.324 l 0.149 0.111 l 0.11 0.106 c 0.324 0.31 0.649 0.624 0.98 0.942 c 0.616 0.62 1.443 1.343 1.771 1.899 c 0.43 0.605 0.884 1.158 1.315 1.807 c 0.19 0.336 0.386 0.682 0.579 1.022 c -1.004 1.088 -2.83 2.692 -5.122 3.039 c -2.23 0.337 -4.759 -1.966 -4.759 -1.966 l 0.579 -3.428 l -1.81 2.053 l -2.905 -2.831 l 1.182 3.048 l -4.002 -1.077 l 3.072 2.609 l -3.26 1.209 l 4.688 0.524 c 0 0 3.048 3.549 7.145 3.312 c 3.032 -0.175 5.345 -1.928 6.729 -3.323 c 0.05 0.122 0.096 0.243 0.148 0.362 c 1.229 3.246 1.896 6.737 2.283 10.371 c 0.023 0.459 0.076 0.918 0.12 1.38 l 0.072 0.696 c 0.006 -0.134 -0.004 0.358 0.014 -0.289 v 0.055 v 0.109 v 0.215 l 0.001 0.438 c 0 0.581 0.003 1.166 0.003 1.751 l 0.017 0.867 l -0.05 0.625 c -0.009 0.13 -0.012 0.261 -0.019 0.392 c -1.477 -0.732 -3.113 -1.305 -4.7 -1.36 c -2.856 -0.099 -5.63 2.591 -6.914 4.042 l -3.016 -0.667 l 2.104 1.607 l -5.754 1.369 l 4.712 0.251 l -4.408 2.305 l 5.551 -0.954 l -3.279 2.633 l 5.935 -2.051 c 0 0 3.566 -4.878 5.702 -4.586 c 0.67 0.09 2.199 0.933 3.679 1.834 c -0.055 0.275 -0.115 0.552 -0.155 0.837 c -0.665 3.998 -2.174 8.206 -4.858 11.788 c -2.72 3.547 -6.573 6.164 -10.686 7.916 c -4.146 1.756 -8.592 2.582 -13.045 2.396 c -4.308 -0.151 -8.541 -1.202 -12.193 -2.985 c -3.665 -1.757 -6.804 -4.127 -9.247 -6.74 c -2.449 -2.604 -4.347 -5.36 -5.54 -8.031 c -0.163 -0.328 -0.322 -0.65 -0.48 -0.968 c -0.137 -0.325 -0.25 -0.655 -0.375 -0.974 c -0.242 -0.639 -0.476 -1.256 -0.701 -1.848 c -0.361 -1.213 -0.623 -2.35 -0.893 -3.364 c -0.158 -1.042 -0.298 -1.969 -0.419 -2.777 c -0.128 -0.809 -0.087 -1.507 -0.131 -2.069 c -0.045 -1.124 -0.07 -1.723 -0.07 -1.723 l -0.003 -0.058 c 0 -0.003 0 -0.006 0 -0.009 c -0.019 -0.299 -0.277 -0.529 -0.578 -0.51 c -0.301 0.018 -0.53 0.276 -0.512 0.578 c 0 0 0.036 0.618 0.104 1.778 c 0.058 0.578 0.034 1.301 0.178 2.132 c 0.129 0.831 0.275 1.789 0.441 2.859 c 0.275 1.049 0.541 2.222 0.91 3.474 c 0.219 0.617 0.447 1.258 0.681 1.924 c 0.122 0.331 0.232 0.675 0.368 1.013 c 0.155 0.332 0.313 0.669 0.471 1.011 c 1.199 2.777 3.033 5.71 5.473 8.539 c 2.458 2.808 5.564 5.522 9.353 7.632 c 3.783 2.092 8.185 3.657 13.006 4.207 c 4.665 0.541 9.812 0.197 14.702 -1.32 c 4.929 -1.498 9.521 -4.201 13.744 -7.522 c 4.187 -3.36 7.995 -7.6 10.58 -12.642 c 0.688 -1.242 1.193 -2.559 1.66 -3.893 c 0.38 -0.905 0.632 -1.958 0.863 -3.023 c 1.291 -1.688 3.035 -3.849 3.825 -4.267 c 1.907 -1.006 5.376 2.354 5.376 2.354 l 6.276 -0.112 l -3.982 -1.348 L 94.785 52.821 z" stroke-linecap="round" />
</g>
<g transform="matrix(1 0 0 1 349.71098427171665 296.3853413853018)" style=""  ><path fill="#000000" opacity="1" d="M-111.58-13.66C-120.50-13.66-125.38-8.78-125.38-1.21C-125.38 6.36-120.50 11.24-111.58 11.24C-103.50 11.24-99.13 6.87-99.13 2.83C-99.13 1.99-99.63 1.49-100.48 1.49L-104.68 1.49C-105.69 1.49-106.23 1.99-106.70 2.83C-107.54 4.35-108.89 5.69-111.58 5.69C-115.28 5.69-117.64 3.34-117.64-1.21C-117.64-5.75-115.28-8.10-111.58-8.10C-109.06-8.10-107.88-6.93-107.04-5.58C-106.53-4.74-106.03-4.24-105.02-4.24L-100.81-4.24C-99.97-4.24-99.47-4.74-99.47-5.58C-99.47-9.45-103.67-13.66-111.58-13.66Z"/><path fill="#000000" opacity="1" d="M-80.62-11.81C-80.62-12.48-81.13-12.98-81.80-12.98L-95.60-12.98C-96.27-12.98-96.77-12.48-96.77-11.81L-96.77-8.44C-96.77-7.77-96.27-7.26-95.60-7.26L-92.40-7.26L-92.40 4.85L-95.60 4.85C-96.27 4.85-96.77 5.36-96.77 6.03L-96.77 9.39C-96.77 10.07-96.27 10.57-95.60 10.57L-81.80 10.57C-81.13 10.57-80.62 10.07-80.62 9.39L-80.62 6.03C-80.62 5.36-81.13 4.85-81.80 4.85L-85.00 4.85L-85.00-7.26L-81.80-7.26C-81.13-7.26-80.62-7.77-80.62-8.44Z"/><path fill="#000000" opacity="1" d="M-54.71-11.81C-54.71-12.48-55.22-12.98-55.89-12.98L-75.74-12.98C-76.42-12.98-76.92-12.48-76.92-11.81L-76.92 9.39C-76.92 10.07-76.42 10.57-75.74 10.57L-70.70 10.57C-70.02 10.57-69.52 10.07-69.52 9.39L-69.52 2.83L-58.92 2.83C-58.24 2.83-57.74 2.33-57.74 1.65L-57.74-1.71C-57.74-2.38-58.24-2.89-58.92-2.89L-69.52-2.89L-69.52-7.26L-55.89-7.26C-55.22-7.26-54.71-7.77-54.71-8.44Z"/><path fill="#000000" opacity="1" d="M-31.49 0.14C-31.49 0.14-26.95-0.87-26.95-5.24C-26.95-9.45-30.48-12.98-37.89-12.98L-50.17-12.98C-50.84-12.98-51.35-12.48-51.35-11.81L-51.35 9.39C-51.35 10.07-50.84 10.57-50.17 10.57L-45.12 10.57C-44.45 10.57-43.94 10.07-43.94 9.39L-43.94 2.49L-39.57 2.49C-37.72 2.49-37.08 3.17-36.54 4.18L-33.68 9.39C-33.31 10.07-32.84 10.57-31.49 10.57L-26.28 10.57C-25.44 10.57-25.17 9.90-25.44 9.39L-28.30 4.18C-29.98 1.15-31.49 0.48-31.49 0.48ZM-43.94-2.89L-43.94-7.60L-37.89-7.60C-35.70-7.60-34.69-6.59-34.69-5.24C-34.69-3.90-35.70-2.89-37.89-2.89Z"/><path fill="#000000" opacity="1" d="M-4.03 9.39C-3.77 10.07-3.19 10.57-2.52 10.57L3.20 10.57C3.87 10.57 4.34 10.07 4.04 9.39L-5.38-11.84C-5.68-12.51-6.22-12.98-6.90-12.98L-13.79-12.98C-14.47-12.98-15.00-12.48-15.31-11.81L-24.73 9.39C-25.03 10.07-24.56 10.57-23.89 10.57L-18.50 10.57C-17.83 10.57-17.26 10.07-16.99 9.39L-15.81 6.36L-5.21 6.36ZM-10.60-5.92L-10.26-5.92L-7.57 0.81L-13.46 0.81Z"/></g></svg>