<?xml version="1.0" standalone="no"?>
<!DOCTYPE svg PUBLIC "-//W3C//DTD SVG 20010904//EN"
 "http://www.w3.org/TR/2001/REC-SVG-20010904/DTD/svg10.dtd">
<svg version="1.0" xmlns="http://www.w3.org/2000/svg"
 width="273.000000pt" height="273.000000pt" viewBox="0 0 273.000000 273.000000"
 preserveAspectRatio="xMidYMid meet">
<metadata>
Created by potrace 1.14, written by Peter Selinger 2001-2017
</metadata>
<g transform="translate(0.000000,273.000000) scale(0.100000,-0.100000)"
fill="#000000" stroke="none">
<path d="M1558 2556 c-1 -2 -37 -6 -78 -9 -41 -4 -86 -9 -100 -12 -14 -3 -35
-8 -48 -11 -12 -2 -60 -18 -106 -35 -249 -90 -477 -315 -572 -566 -28 -75 -62
-199 -70 -262 -3 -25 -8 -55 -10 -66 -3 -11 -5 -70 -5 -131 -1 -160 26 -291
87 -421 37 -78 52 -171 35 -217 -12 -31 -63 -56 -114 -56 -33 0 -83 -38 -142
-109 l-20 -24 43 22 c24 12 46 21 48 19 2 -2 -15 -27 -36 -56 -45 -59 -42 -64
14 -22 22 17 41 28 43 26 2 -2 -6 -25 -17 -52 l-20 -49 22 26 c13 14 38 43 55
64 33 38 33 38 33 12 0 -23 19 -40 21 -19 3 27 9 47 16 50 118 44 163 82 163
140 0 23 2 23 48 -18 108 -95 228 -161 363 -201 l76 -22 -8 -34 c-18 -83 20
-178 94 -233 36 -27 51 -47 68 -93 12 -31 23 -56 25 -54 2 2 5 18 6 36 3 44
13 47 53 17 18 -14 36 -26 39 -26 3 0 -6 19 -19 42 -14 24 -25 46 -25 49 0 4
16 3 35 -1 46 -10 45 3 -2 31 -21 12 -40 24 -42 25 -2 2 6 15 18 30 12 15 20
29 18 31 -2 2 -24 -5 -48 -16 l-44 -20 -24 22 c-29 27 -59 91 -56 120 1 12 3
29 4 37 1 13 34 15 222 17 244 2 289 8 396 59 156 74 312 289 260 358 -15 21
-48 24 -152 13 -167 -18 -182 -22 -353 -112 -62 -33 -156 -40 -244 -20 l-53
12 1 45 c3 62 35 121 79 142 38 18 95 29 95 18 0 -4 13 -22 29 -41 l28 -34 -4
40 -3 39 58 -3 57 -3 -39 21 -39 21 49 29 49 30 -52 -5 c-58 -5 -61 -1 -38 44
20 38 13 38 -45 -5 -33 -24 -59 -35 -82 -35 -49 0 -121 -27 -156 -58 -37 -34
-73 -101 -79 -150 -3 -20 -8 -40 -12 -44 -17 -19 -202 108 -303 209 -32 31
-58 60 -58 63 0 4 23 17 51 31 78 36 119 104 119 194 0 44 10 61 50 90 l25 17
-32 -6 c-18 -3 -33 -3 -33 0 0 3 18 32 40 65 45 65 42 73 -9 29 -19 -16 -36
-28 -38 -26 -2 2 5 28 17 57 l20 54 -21 -25 c-12 -14 -32 -38 -46 -55 l-25
-30 6 49 c7 59 8 59 -38 -28 -32 -60 -36 -76 -35 -136 2 -94 -15 -140 -53
-149 -4 -1 -25 -8 -46 -15 l-39 -14 -31 51 c-130 216 -146 424 -50 654 132
319 442 525 788 525 230 1 426 -73 591 -222 59 -53 79 -63 79 -40 0 24 -134
134 -225 186 -127 70 -258 111 -395 120 -41 3 -80 7 -87 9 -6 2 -13 2 -15 1z"/>
</g>
</svg>
